<?xml version="1.0" encoding="UTF-8" standalone="no"?>
<svg width="450px" height="120px" viewBox="0 0 450 120" version="1.1" xmlns="http://www.w3.org/2000/svg" xmlns:xlink="http://www.w3.org/1999/xlink" xmlns:sketch="http://www.bohemiancoding.com/sketch/ns">
    <!-- Generator: Sketch 3.3.1 (12005) - http://www.bohemiancoding.com/sketch -->
    <title>colorgy_logo_with_text_white</title>
    <desc>Created with Sketch.</desc>
    <defs>
        <linearGradient x1="-0.000879366374%" y1="50%" x2="99.9992577%" y2="50%" id="linearGradient-1">
            <stop stop-color="#40F2ED" offset="0%"></stop>
            <stop stop-color="#47F9F6" offset="41.23%"></stop>
            <stop stop-color="#4DFFFF" offset="100%"></stop>
        </linearGradient>
        <linearGradient x1="0%" y1="49.9957591%" x2="99.9992121%" y2="49.9957591%" id="linearGradient-2">
            <stop stop-color="#40F2ED" offset="0%"></stop>
            <stop stop-color="#47F9F6" offset="41.23%"></stop>
            <stop stop-color="#4DFFFF" offset="100%"></stop>
        </linearGradient>
        <linearGradient x1="0%" y1="50.0056529%" x2="99.9992121%" y2="50.0056529%" id="linearGradient-3">
            <stop stop-color="#40F2ED" offset="0%"></stop>
            <stop stop-color="#47F9F6" offset="41.23%"></stop>
            <stop stop-color="#4DFFFF" offset="100%"></stop>
        </linearGradient>
        <linearGradient x1="-0.000548352733%" y1="50.0014134%" x2="99.9988854%" y2="50.0014134%" id="linearGradient-4">
            <stop stop-color="#FFF000" offset="0%"></stop>
            <stop stop-color="#FFEA00" offset="20.45%"></stop>
            <stop stop-color="#FFE100" offset="62.26%"></stop>
        </linearGradient>
        <linearGradient x1="0.000954927426%" y1="50.0009065%" x2="99.999809%" y2="50.0009065%" id="linearGradient-5">
            <stop stop-color="#FFE100" offset="0%"></stop>
            <stop stop-color="#FFF000" offset="100%"></stop>
        </linearGradient>
        <linearGradient x1="0.000983284169%" y1="50.0004532%" x2="100.000197%" y2="50.0004532%" id="linearGradient-6">
            <stop stop-color="#FFE100" offset="0%"></stop>
            <stop stop-color="#FFF000" offset="100%"></stop>
        </linearGradient>
        <linearGradient x1="0%" y1="49.9995468%" x2="100.000186%" y2="49.9995468%" id="linearGradient-7">
            <stop stop-color="#FFE100" offset="0%"></stop>
            <stop stop-color="#FFF000" offset="100%"></stop>
        </linearGradient>
    </defs>
    <g id="Page-1" stroke="none" stroke-width="1" fill="none" fill-rule="evenodd" sketch:type="MSPage">
        <g id="Logo-With-Text---White" sketch:type="MSArtboardGroup">
            <g id="Colorgy-Logo-with-Text" sketch:type="MSLayerGroup" transform="translate(23.905660, 23.500000)">
                <g id="Logo" sketch:type="MSShapeGroup">
                    <path d="M78.3565472,71.6763585 L0.0592264151,71.6763585 L0.0592264151,61.9329245 L70.0841321,61.9329245 C79.1581698,61.9329245 78.3565472,71.6763585 78.3565472,71.6763585 L78.3565472,71.6763585 Z" id="Shape" fill="url(#linearGradient-1)"></path>
                    <rect id="Shape" fill="url(#linearGradient-2)" x="4.2174717" y="41.2876981" width="69.9216038" height="9.74343396"></rect>
                    <rect id="Shape" fill="url(#linearGradient-3)" x="4.2174717" y="20.6424717" width="69.9216038" height="9.74618868"></rect>
                    <path d="M76.2175094,9.74481132 L9.38807547,9.74481132 C1.70792453,9.74481132 2.07981132,0 2.07981132,0 L76.2188868,0 L76.2188868,9.74481132 L76.2175094,9.74481132 Z" id="Shape" fill="url(#linearGradient-4)"></path>
                    <path d="M76.2767358,9.74481132 L4.15824528,30.3886604 L4.15824528,20.6424717 L76.2767358,0 L76.2767358,9.74481132 Z" id="Shape" fill="url(#linearGradient-5)"></path>
                    <path d="M74.1969245,30.3886604 L4.15824528,51.0338868 L4.15824528,41.2876981 L74.1969245,20.6424717 L74.1969245,30.3886604 Z" id="Shape" fill="url(#linearGradient-6)"></path>
                    <path d="M74.1969245,51.0338868 L0,71.6763585 L0,61.9315472 L74.1969245,41.2876981 L74.1969245,51.0338868 Z" id="Shape" fill="url(#linearGradient-7)"></path>
                </g>
                <g id="Text" transform="translate(99.169811, 9.264151)" fill="#FFFFFF" sketch:type="MSShapeGroup">
                    <path d="M36.0041509,41.9543019 C31.9795094,48.2791321 27.1890566,52.397434 19.4276415,52.397434 C4.86345283,52.397434 0.26445283,38.984717 0.26445283,26.6229245 C0.26445283,6.69116981 10.8026226,0.752 18.853283,0.752 C26.6146981,0.752 31.1186604,4.77664151 34.6639811,11.3879623 L28.8198491,14.3589245 C26.7111132,10.334283 23.836566,6.78896226 18.9496981,6.78896226 C8.98450943,6.78896226 6.97218868,18.8628868 6.97218868,26.5292642 C6.97218868,34.2906792 8.7930566,46.3604717 18.9496981,46.3604717 C24.7938302,46.3604717 27.7647925,42.8165283 30.7343774,38.312566 L36.0041509,41.9543019 L36.0041509,41.9543019 Z" id="Shape"></path>
                    <path d="M51.1440755,26.6229245 C51.1440755,33.9050189 52.4842453,46.3604717 62.1629434,46.3604717 C71.8402642,46.3604717 73.1818113,33.9050189 73.1818113,26.6229245 C73.1818113,19.2444151 71.8416415,6.78896226 62.1629434,6.78896226 C52.4842453,6.78758491 51.1440755,19.2430377 51.1440755,26.6229245 L51.1440755,26.6229245 Z M79.8881698,26.6229245 C79.8881698,30.647566 79.6003019,52.397434 62.161566,52.397434 C54.112283,52.397434 44.4349623,46.6483396 44.4349623,26.6229245 C44.4349623,6.69116981 53.9208302,0.752 62.161566,0.752 C70.1158113,0.752 79.8881698,6.49971698 79.8881698,26.6229245 L79.8881698,26.6229245 Z" id="Shape"></path>
                    <path d="M93.7802075,1.61422642 L100.201453,1.61422642 L100.201453,45.7874906 L126.360245,45.7874906 L126.360245,51.5365849 L93.7802075,51.5365849 L93.7802075,1.61422642 Z" id="Shape"></path>
                    <path d="M139.293642,26.6229245 C139.293642,33.9050189 140.636566,46.3604717 150.313887,46.3604717 C159.992585,46.3604717 161.334132,33.9050189 161.334132,26.6229245 C161.334132,19.2444151 159.992585,6.78896226 150.313887,6.78896226 C140.636566,6.78758491 139.293642,19.2430377 139.293642,26.6229245 L139.293642,26.6229245 Z M168.039113,26.6229245 C168.039113,30.647566 167.752623,52.397434 150.312509,52.397434 C142.263226,52.397434 132.585906,46.6483396 132.585906,26.6229245 C132.585906,6.69116981 142.071774,0.752 150.312509,0.752 C158.266755,0.752 168.039113,6.49971698 168.039113,26.6229245 L168.039113,26.6229245 Z" id="Shape"></path>
                    <path d="M194.772264,24.4191509 C201.000679,24.4191509 205.121736,20.8738302 205.121736,15.2183962 C205.121736,10.7158113 202.438642,7.36332075 196.689547,7.36332075 L186.341453,7.36332075 L186.341453,24.4191509 L194.772264,24.4191509 L194.772264,24.4191509 Z M179.920208,1.61422642 L196.878245,1.61422642 C205.215396,1.61422642 211.82534,5.54245283 211.82534,15.2183962 C211.82534,21.3503962 207.707038,27.3887358 201.670075,29.2096038 L213.934075,49.4264717 L208.377811,52.781717 L195.633113,30.1682453 L186.338698,30.1682453 L186.338698,51.5365849 L179.917453,51.5365849 L179.917453,1.61422642 L179.920208,1.61422642 Z" id="Shape"></path>
                    <path d="M255.329208,46.9362075 C251.210906,50.1936604 245.076151,52.397434 239.999208,52.397434 C225.337226,52.397434 221.121132,38.7905094 221.121132,26.5292642 C221.121132,14.4525849 225.528679,0.752 239.806377,0.752 C246.512736,0.752 252.355491,4.68160377 255.807151,10.334283 L250.344547,13.8796038 C247.950698,9.85496226 244.307585,6.78896226 239.420717,6.78896226 C229.551943,6.78896226 227.827491,19.1507547 227.827491,26.720717 C227.827491,34.4807547 229.551943,46.3618491 239.613547,46.3618491 C242.871,46.3618491 246.128453,45.501 248.907962,43.7765472 L248.907962,30.6489434 L236.930453,30.6489434 L236.930453,24.8998491 L255.32783,24.8998491 L255.32783,46.9362075 L255.329208,46.9362075 Z" id="Shape"></path>
                    <path d="M295.857981,0.367716981 L301.894943,3.53013208 L285.70134,32.2769811 L285.70134,51.5365849 L279.282849,51.5365849 L279.282849,32.2769811 L263.184283,3.53013208 L269.221245,0.367716981 L282.538925,26.0471887 L295.857981,0.367716981 Z" id="Shape"></path>
                </g>
            </g>
        </g>
    </g>
</svg>