<?xml version="1.0" encoding="UTF-8" standalone="no"?>
<svg width="120px" height="120px" viewBox="0 0 120 120" version="1.1" xmlns="http://www.w3.org/2000/svg" xmlns:xlink="http://www.w3.org/1999/xlink" xmlns:sketch="http://www.bohemiancoding.com/sketch/ns">
    <!-- Generator: Sketch 3.3.1 (12005) - http://www.bohemiancoding.com/sketch -->
    <title>colorgy_logo_black</title>
    <desc>Created with Sketch.</desc>
    <defs></defs>
    <g id="Page-1" stroke="none" stroke-width="1" fill="none" fill-rule="evenodd" sketch:type="MSPage">
        <g id="Logo-B" sketch:type="MSArtboardGroup" fill="#000000">
            <g id="Colorgy-Logo-B" sketch:type="MSLayerGroup" transform="translate(20.000000, 22.807018)">
                <path d="M79.8498246,73.6645614 L0.0659649123,73.6645614 L0.0659649123,63.7361404 L71.4203509,63.7361404 C80.6666667,63.7361404 79.8498246,73.6645614 79.8498246,73.6645614" id="Fill-1" sketch:type="MSShapeGroup"></path>
                <path d="M4.30315789,42.6989474 L75.5522807,42.6989474 L75.5522807,52.6273684 L4.30315789,52.6273684 L4.30315789,42.6989474 Z" id="Fill-2" sketch:type="MSShapeGroup"></path>
                <path d="M4.30315789,21.6617544 L75.5522807,21.6617544 L75.5522807,31.5929825 L4.30315789,31.5929825 L4.30315789,21.6617544 Z" id="Fill-3" sketch:type="MSShapeGroup"></path>
                <path d="M77.6701754,10.557193 L9.57192982,10.557193 C1.74596491,10.557193 2.12491228,0.627368421 2.12491228,0.627368421 L77.6701754,0.627368421 L77.6701754,10.557193" id="Fill-4" sketch:type="MSShapeGroup"></path>
                <path d="M9.14666667,20.2596491 L43.8414035,20.2596491 L72.8280702,11.9607018 L38.1361404,11.9607018 L9.14666667,20.2596491" id="Fill-5" sketch:type="MSShapeGroup"></path>
                <path d="M37.1564912,32.9978947 L9.00491228,41.2954386 L42.6989474,41.2954386 L70.8505263,32.9978947 L37.1564912,32.9978947" id="Fill-6" sketch:type="MSShapeGroup"></path>
                <path d="M70.5768421,54.0308772 L34.882807,54.0308772 L5.04421053,62.3326316 L40.7368421,62.3326316 L70.5768421,54.0308772" id="Fill-7" sketch:type="MSShapeGroup"></path>
            </g>
        </g>
    </g>
</svg>