<?xml version="1.0" encoding="UTF-8" standalone="no"?>
<svg width="454px" height="64px" viewBox="0 0 454 64" version="1.1" xmlns="http://www.w3.org/2000/svg" xmlns:xlink="http://www.w3.org/1999/xlink" xmlns:sketch="http://www.bohemiancoding.com/sketch/ns">
    <!-- Generator: Sketch 3.3.1 (12005) - http://www.bohemiancoding.com/sketch -->
    <title>colorgy-text</title>
    <desc>Created with Sketch.</desc>
    <defs></defs>
    <g id="Colorgy" stroke="none" stroke-width="1" fill="none" fill-rule="evenodd" sketch:type="MSPage">
        <g id="colorgy-text" sketch:type="MSArtboardGroup" fill="#000000">
            <g id="Text" sketch:type="MSLayerGroup" transform="translate(108.050232, 1.411950)">
                <path d="M41.0072091,47.9201771 C36.4233122,55.123456 30.9671885,59.8137442 22.1272642,59.8137442 C5.53926762,59.8137442 0.301200618,44.5381499 0.301200618,30.4594418 C0.301200618,7.75938784 12.3037315,0.995333333 21.4730941,0.995333333 C30.3130184,0.995333333 35.4428415,5.57895283 39.4808123,13.1085126 L32.8245923,16.4921085 C30.4228312,11.908489 27.1488432,7.87076258 21.5829068,7.87076258 C10.2329772,7.87076258 7.94102879,21.6216211 7.94102879,30.3527731 C7.94102879,39.1921625 10.0149205,52.938315 21.5829068,52.938315 C28.2391267,52.938315 31.6229274,48.9021572 35.0051593,43.7726447 L41.0072091,47.9201771 L41.0072091,47.9201771 Z" id="Shape" sketch:type="MSShapeGroup"></path>
                <path d="M58.2509445,30.4594418 C58.2509445,38.7529382 59.7773414,52.938315 70.8009703,52.938315 C81.8230304,52.938315 83.350996,38.7529382 83.350996,30.4594418 C83.350996,22.0561394 81.8245991,7.87076258 70.8009703,7.87076258 C59.7773414,7.86919392 58.2509445,22.0545708 58.2509445,30.4594418 L58.2509445,30.4594418 Z M90.9892554,30.4594418 C90.9892554,35.0430613 90.661386,59.8137442 70.7994015,59.8137442 C61.6316077,59.8137442 50.6095476,53.2661646 50.6095476,30.4594418 C50.6095476,7.75938784 61.413551,0.995333333 70.7994015,0.995333333 C79.8589514,0.995333333 90.9892554,7.54134434 90.9892554,30.4594418 L90.9892554,30.4594418 Z" id="Shape" sketch:type="MSShapeGroup"></path>
                <path d="M106.8117,1.97731342 L114.125228,1.97731342 L114.125228,52.2857531 L143.918989,52.2857531 L143.918989,58.8333328 L106.8117,58.8333328 L106.8117,1.97731342 Z" id="Shape" sketch:type="MSShapeGroup"></path>
                <path d="M158.649582,30.4594418 C158.649582,38.7529382 160.179116,52.938315 171.201176,52.938315 C182.224805,52.938315 183.752771,38.7529382 183.752771,30.4594418 C183.752771,22.0561394 182.224805,7.87076258 171.201176,7.87076258 C160.179116,7.86919392 158.649582,22.0545708 158.649582,30.4594418 L158.649582,30.4594418 Z M191.389461,30.4594418 C191.389461,35.0430613 191.063161,59.8137442 171.199608,59.8137442 C162.031814,59.8137442 151.009754,53.2661646 151.009754,30.4594418 C151.009754,7.75938784 161.813757,0.995333333 171.199608,0.995333333 C180.259157,0.995333333 191.389461,7.54134434 191.389461,30.4594418 L191.389461,30.4594418 Z" id="Shape" sketch:type="MSShapeGroup"></path>
                <path d="M221.837393,27.9495886 C228.931295,27.9495886 233.625004,23.9118622 233.625004,17.4709513 C233.625004,12.3430073 230.569073,8.52489308 224.021097,8.52489308 L212.235054,8.52489308 L212.235054,27.9495886 L221.837393,27.9495886 L221.837393,27.9495886 Z M204.921527,1.97731342 L224.236016,1.97731342 C233.73168,1.97731342 241.260126,6.45112683 241.260126,17.4709513 C241.260126,24.4546179 236.569554,31.3316158 229.693709,33.4053821 L243.661887,56.4301483 L237.333537,60.2513999 L222.817863,34.4971682 L212.231917,34.4971682 L212.231917,58.8333328 L204.918389,58.8333328 L204.918389,1.97731342 L204.921527,1.97731342 Z" id="Shape" sketch:type="MSShapeGroup"></path>
                <path d="M290.809197,53.5940142 C286.118625,57.303891 279.131398,59.8137442 273.348973,59.8137442 C256.649595,59.8137442 251.847642,44.3169691 251.847642,30.3527731 C251.847642,16.5987773 256.867652,0.995333333 273.129348,0.995333333 C280.767607,0.995333333 287.422258,5.47071541 291.353554,11.908489 L285.131879,15.9462154 C282.405386,11.3625959 278.256033,7.87076258 272.690097,7.87076258 C261.44998,7.87076258 259.485901,21.9494706 259.485901,30.5708166 C259.485901,39.4086373 261.44998,52.9398836 272.909722,52.9398836 C276.619824,52.9398836 280.329925,51.9594722 283.495669,49.9955121 L283.495669,35.04463 L269.853791,35.04463 L269.853791,28.4970503 L290.807628,28.4970503 L290.807628,53.5940142 L290.809197,53.5940142 Z" id="Shape" sketch:type="MSShapeGroup"></path>
                <path d="M336.96976,0.557677673 L343.845606,4.15931709 L325.401774,36.8987841 L325.401774,58.8333328 L318.091384,58.8333328 L318.091384,36.8987841 L299.755796,4.15931709 L306.631642,0.557677673 L321.799917,29.8037427 L336.96976,0.557677673 Z" id="Shape" sketch:type="MSShapeGroup"></path>
            </g>
            <g id="Colorgy-Logo" sketch:type="MSLayerGroup" transform="translate(-6.406604, -9.839474)">
                <path d="M89.8310526,82.8726316 L0.0742105263,82.8726316 L0.0742105263,71.7031579 L80.3478947,71.7031579 C90.75,71.7031579 89.8310526,82.8726316 89.8310526,82.8726316" id="Fill-1" sketch:type="MSShapeGroup"></path>
                <path d="M4.84105263,48.0363158 L84.9963158,48.0363158 L84.9963158,59.2057895 L4.84105263,59.2057895 L4.84105263,48.0363158 Z" id="Fill-2" sketch:type="MSShapeGroup"></path>
                <path d="M4.84105263,24.3694737 L84.9963158,24.3694737 L84.9963158,35.5421053 L4.84105263,35.5421053 L4.84105263,24.3694737 Z" id="Fill-3" sketch:type="MSShapeGroup"></path>
                <path d="M87.3789474,11.8768421 L10.7684211,11.8768421 C1.96421053,11.8768421 2.39052632,0.705789474 2.39052632,0.705789474 L87.3789474,0.705789474 L87.3789474,11.8768421" id="Fill-4" sketch:type="MSShapeGroup"></path>
                <path d="M14.7031579,21.5273684 L53.7331579,21.5273684 L77.5184211,14.7189474 L38.49,14.7189474 L14.7031579,21.5273684" id="Fill-5" sketch:type="MSShapeGroup"></path>
                <path d="M75.42,38.3857895 L37.5157895,38.3857895 L14.4157895,45.1942105 L52.3215789,45.1942105 L75.42,38.3857895" id="Fill-6" sketch:type="MSShapeGroup"></path>
                <path d="M74.8578947,62.0478947 L34.7036842,62.0478947 L10.2157895,68.8610526 L50.37,68.8610526 L74.8578947,62.0478947" id="Fill-7" sketch:type="MSShapeGroup"></path>
            </g>
        </g>
    </g>
</svg>