<?xml version="1.0" encoding="UTF-8" standalone="no"?>
<svg width="128px" height="128px" viewBox="0 0 128 128" version="1.1" xmlns="http://www.w3.org/2000/svg" xmlns:xlink="http://www.w3.org/1999/xlink" xmlns:sketch="http://www.bohemiancoding.com/sketch/ns">
    <!-- Generator: Sketch 3.3.1 (12005) - http://www.bohemiancoding.com/sketch -->
    <title>github</title>
    <desc>Created with Sketch.</desc>
    <defs></defs>
    <g id="Brands" stroke="none" stroke-width="1" fill="none" fill-rule="evenodd" sketch:type="MSPage">
        <g id="github" sketch:type="MSArtboardGroup" fill="#161614">
            <path d="M-3.34999998,66.1584793 C-3.34999998,95.8252944 15.9082383,120.998387 42.6188824,129.878642 C45.9819559,130.497045 47.2075177,128.423336 47.2075177,126.642338 C47.2075177,125.04686 47.1497471,120.825234 47.1167353,115.22251 C28.4196971,119.279229 24.4747912,106.218574 24.4747912,106.218574 C21.4170765,98.4596878 17.0100059,96.3942244 17.0100059,96.3942244 C10.9069559,92.2261936 17.4721706,92.3127699 17.4721706,92.3127699 C24.21895,92.7868782 27.7677147,99.2347519 27.7677147,99.2347519 C33.767603,109.496106 43.5019471,106.531898 47.3313118,104.81274 C47.9420294,100.471556 49.6792735,97.5155937 51.5980824,95.8335397 C36.6726383,94.1391177 20.9796706,88.3797319 20.9796706,62.6459548 C20.9796706,55.3117047 23.5999794,49.317326 27.8997618,44.6215919 C27.2106412,42.9230472 24.9039441,36.0958869 28.5599971,26.8528353 C28.5599971,26.8528353 34.2050088,25.0429781 47.0424588,33.7335904 C52.4068706,32.2453025 58.1550441,31.4990971 63.8702059,31.4743611 C69.5812412,31.4990971 75.3294147,32.2453025 80.7020794,33.7335904 C93.5312765,25.0429781 99.1680353,26.8528353 99.1680353,26.8528353 C102.832341,36.0958869 100.525644,42.9230472 99.8365235,44.6215919 C104.144559,49.317326 106.744235,55.3117047 106.744235,62.6459548 C106.744235,88.4415721 91.0306353,94.1185043 76.0556735,95.7840676 C78.4696588,97.8577763 80.6154235,101.955722 80.6154235,108.218075 C80.6154235,117.197275 80.5370206,124.440826 80.5370206,126.642338 C80.5370206,128.439827 81.7460765,130.525903 85.1586677,129.870397 C111.844553,120.973651 131.086285,95.8211717 131.086285,66.1584793 C131.086285,29.0667151 100.987809,-1 63.861953,-1 C26.7484765,-1 -3.34999998,29.0667151 -3.34999998,66.1584793 Z" id="GitHub" sketch:type="MSShapeGroup"></path>
        </g>
    </g>
</svg>