<?xml version="1.0" encoding="UTF-8" standalone="no"?>
<svg width="24px" height="24px" viewBox="0 0 24 24" version="1.1" xmlns="http://www.w3.org/2000/svg" xmlns:xlink="http://www.w3.org/1999/xlink" xmlns:sketch="http://www.bohemiancoding.com/sketch/ns">
    <!-- Generator: Sketch 3.3.1 (12005) - http://www.bohemiancoding.com/sketch -->
    <title>settings</title>
    <desc>Created with Sketch.</desc>
    <defs></defs>
    <g id="Common" stroke="none" stroke-width="1" fill="none" fill-rule="evenodd" sketch:type="MSPage">
        <g id="Action" sketch:type="MSArtboardGroup" transform="translate(-48.000000, -48.000000)" stroke="#000000">
            <g id="settings" sketch:type="MSLayerGroup" transform="translate(48.000000, 48.000000)">
                <g id="Shape" transform="translate(2.000000, 2.000000)" sketch:type="MSShapeGroup">
                    <path d="M8.79618514,20 C8.63211951,20 8.48872882,19.8879514 8.44871282,19.729216 L7.83113245,17.2594791 C7.35027344,17.110748 6.87608377,16.9093274 6.41790049,16.6605529 L4.22168868,17.9791243 C4.08096572,18.0638277 3.90022676,18.0404842 3.78418034,17.9257678 L2.07749767,16.2190282 C1.96145125,16.102978 1.93944244,15.922233 2.02414299,15.7815053 L3.3426704,13.5878881 C3.09790583,13.1343582 2.90116046,12.6614866 2.75510204,12.1759429 L0.272108844,11.5543402 C0.113378685,11.5149898 0,11.3709274 0,11.2075233 L0,8.79647847 C0,8.63107347 0.113378685,8.48767799 0.272108844,8.44899456 L2.74042951,7.83272752 C2.8918234,7.34651682 3.09323729,6.87297829 3.3406696,6.4167806 L2.02214219,4.22049555 C1.93744164,4.07843399 1.95945045,3.897689 2.07549687,3.78163871 L3.7795118,2.07756695 C3.89689209,1.96018275 4.07763105,1.9368393 4.21835401,2.02421049 L6.41456583,3.34144796 C6.8667467,3.09934305 7.33960251,2.90125721 7.82513005,2.75519392 L8.44537815,0.272117918 C8.48606109,0.112048554 8.62878485,0 8.79285047,0 L11.2038149,0 C11.3678805,0 11.512605,0.112048554 11.5512872,0.272117918 L12.1688675,2.74318872 C12.6537282,2.89458765 13.1279178,3.09467436 13.5807656,3.34011405 L15.7796452,2.02020876 C15.9177004,1.93950712 16.0997732,1.96018275 16.2171535,2.07489912 L17.9211685,3.77897089 C18.0385488,3.89502118 18.0605576,4.07576617 17.975857,4.21782773 L16.6573296,6.4167806 C16.8994264,6.86764265 17.0961718,7.34051422 17.2422302,7.82339014 L19.7278912,8.44632674 C19.8879552,8.48567713 20,8.62973955 20,8.79381065 L20,11.2021876 C20,11.3662587 19.8879552,11.5109881 19.7278912,11.5496715 L17.2422302,12.1726081 C17.0961718,12.6594858 16.8994264,13.1323574 16.6586635,13.5805516 L17.9785247,15.7781705 C18.0632253,15.9202321 18.0412165,16.1009771 17.9238362,16.2170274 L16.2198213,17.923767 C16.102441,18.0398173 15.921702,18.059159 15.7823129,17.9784573 L13.5834334,16.658552 C13.1299186,16.9059926 12.655729,17.1054123 12.1702014,17.2574782 L11.5552888,19.7272151 C11.5146058,19.8859506 11.3718821,19.9979991 11.2064826,19.9979991 L8.79618514,20 L8.79618514,20 Z" id="Path"></path>
                    <circle id="Oval" cx="10" cy="10" r="2"></circle>
                </g>
            </g>
        </g>
    </g>
</svg>