<?xml version="1.0" encoding="UTF-8" standalone="no"?>
<svg width="190px" height="200px" viewBox="0 0 190 200" version="1.1" xmlns="http://www.w3.org/2000/svg" xmlns:xlink="http://www.w3.org/1999/xlink" xmlns:sketch="http://www.bohemiancoding.com/sketch/ns">
    <!-- Generator: Sketch 3.3.1 (12005) - http://www.bohemiancoding.com/sketch -->
    <title>colorgy_icon_with_text</title>
    <desc>Created with Sketch.</desc>
    <defs>
        <linearGradient x1="-0.000879366374%" y1="50%" x2="99.9992577%" y2="50%" id="linearGradient-1">
            <stop stop-color="#40F2ED" offset="0%"></stop>
            <stop stop-color="#47F9F6" offset="41.23%"></stop>
            <stop stop-color="#4DFFFF" offset="100%"></stop>
        </linearGradient>
        <linearGradient x1="0%" y1="49.9957591%" x2="99.9992121%" y2="49.9957591%" id="linearGradient-2">
            <stop stop-color="#40F2ED" offset="0%"></stop>
            <stop stop-color="#47F9F6" offset="41.23%"></stop>
            <stop stop-color="#4DFFFF" offset="100%"></stop>
        </linearGradient>
        <linearGradient x1="0%" y1="50.0056529%" x2="99.9992121%" y2="50.0056529%" id="linearGradient-3">
            <stop stop-color="#40F2ED" offset="0%"></stop>
            <stop stop-color="#47F9F6" offset="41.23%"></stop>
            <stop stop-color="#4DFFFF" offset="100%"></stop>
        </linearGradient>
        <linearGradient x1="-0.000548352733%" y1="50.0014134%" x2="99.9988854%" y2="50.0014134%" id="linearGradient-4">
            <stop stop-color="#FFF000" offset="0%"></stop>
            <stop stop-color="#FFEA00" offset="20.45%"></stop>
            <stop stop-color="#FFE100" offset="62.26%"></stop>
        </linearGradient>
        <linearGradient x1="0.000954927426%" y1="50.0009065%" x2="99.999809%" y2="50.0009065%" id="linearGradient-5">
            <stop stop-color="#FFE100" offset="0%"></stop>
            <stop stop-color="#FFF000" offset="100%"></stop>
        </linearGradient>
        <linearGradient x1="0.000983284169%" y1="50.0004532%" x2="100.000197%" y2="50.0004532%" id="linearGradient-6">
            <stop stop-color="#FFE100" offset="0%"></stop>
            <stop stop-color="#FFF000" offset="100%"></stop>
        </linearGradient>
        <linearGradient x1="0%" y1="49.9995468%" x2="100.000186%" y2="49.9995468%" id="linearGradient-7">
            <stop stop-color="#FFE100" offset="0%"></stop>
            <stop stop-color="#FFF000" offset="100%"></stop>
        </linearGradient>
    </defs>
    <g id="Page-1" stroke="none" stroke-width="1" fill="none" fill-rule="evenodd" sketch:type="MSPage">
        <g id="Logo-With-Text-Icon" sketch:type="MSArtboardGroup">
            <g id="Colorgy-Logo-with-Text-Icon" sketch:type="MSLayerGroup" transform="translate(35.000000, 34.666667)">
                <g id="Logo" transform="translate(5.714286, 0.351712)" sketch:type="MSShapeGroup">
                    <path d="M107.687117,98.5063878 L0.0813961582,98.5063878 L0.0813961582,85.1157733 L96.3181562,85.1157733 C108.788805,85.1157733 107.687117,98.5063878 107.687117,98.5063878 L107.687117,98.5063878 Z" id="Shape" fill="url(#linearGradient-1)"></path>
                    <rect id="Shape" fill="url(#linearGradient-2)" x="5.79616364" y="56.7425869" width="96.09479" height="13.3906145"></rect>
                    <rect id="Shape" fill="url(#linearGradient-3)" x="5.79616364" y="28.3694005" width="96.09479" height="13.3944004"></rect>
                    <path d="M104.747391,13.3925074 L12.9022375,13.3925074 C2.34723805,13.3925074 2.85833021,0 2.85833021,0 L104.749284,0 L104.749284,13.3925074 L104.747391,13.3925074 Z" id="Shape" fill="url(#linearGradient-4)"></path>
                    <path d="M104.828787,13.3925074 L5.71476748,41.7638009 L5.71476748,28.3694005 L104.828787,0 L104.828787,13.3925074 Z" id="Shape" fill="url(#linearGradient-5)"></path>
                    <path d="M101.970457,41.7638009 L5.71476748,70.1369873 L5.71476748,56.7425869 L101.970457,28.3694005 L101.970457,41.7638009 Z" id="Shape" fill="url(#linearGradient-6)"></path>
                    <path d="M101.970457,70.1369873 L0,98.5063878 L0,85.1138804 L101.970457,56.7425869 L101.970457,70.1369873 Z" id="Shape" fill="url(#linearGradient-7)"></path>
                </g>
                <g id="Text" transform="translate(0.167341, 114.507678)" fill="#717071" sketch:type="MSShapeGroup">
                    <path d="M14.2184156,16.9631029 C12.6290426,19.4608445 10.7372427,21.0872049 7.67217874,21.0872049 C1.92062837,21.0872049 0.104435187,15.7903828 0.104435187,10.9085817 C0.104435187,3.03732337 4.26606862,0.691883117 7.44535857,0.691883117 C10.5104225,0.691883117 12.2890843,2.28125613 13.6891686,4.89213581 L11.3812597,6.06539987 C10.5484979,4.47602686 9.41330914,3.07594263 7.4834339,3.07594263 C3.54807671,3.07594263 2.7533902,7.84406166 2.7533902,10.8715942 C2.7533902,13.9366582 3.47246998,18.7031454 7.4834339,18.7031454 C9.79134276,18.7031454 10.9646068,17.3036051 12.1373269,15.5249433 L14.2184156,16.9631029 L14.2184156,16.9631029 Z" id="Shape"></path>
                    <path d="M20.1973301,10.9085817 C20.1973301,13.7843569 20.7265772,18.7031454 24.5487963,18.7031454 C28.3704714,18.7031454 28.9002624,13.7843569 28.9002624,10.9085817 C28.9002624,7.99473117 28.3710153,3.07594263 24.5487963,3.07594263 C20.7265772,3.0753987 20.1973301,7.99418724 20.1973301,10.9085817 L20.1973301,10.9085817 Z M31.5486735,10.9085817 C31.5486735,12.4979547 31.4349914,21.0872049 24.5482523,21.0872049 C21.3695063,21.0872049 17.5478312,18.8168275 17.5478312,10.9085817 C17.5478312,3.03732337 21.2938996,0.691883117 24.5482523,0.691883117 C27.6894669,0.691883117 31.5486735,2.96171664 31.5486735,10.9085817 L31.5486735,10.9085817 Z" id="Shape"></path>
                    <path d="M37.0347844,1.03238534 L39.5706013,1.03238534 L39.5706013,18.4768692 L49.9009819,18.4768692 L49.9009819,20.7472466 L37.0347844,20.7472466 L37.0347844,1.03238534 Z" id="Shape"></path>
                    <path d="M55.0085153,10.9085817 C55.0085153,13.7843569 55.5388503,18.7031454 59.3605254,18.7031454 C63.1827445,18.7031454 63.7125355,13.7843569 63.7125355,10.9085817 C63.7125355,7.99473117 63.1827445,3.07594263 59.3605254,3.07594263 C55.5388503,3.0753987 55.0085153,7.99418724 55.0085153,10.9085817 L55.0085153,10.9085817 Z M66.3604026,10.9085817 C66.3604026,12.4979547 66.2472645,21.0872049 59.3599815,21.0872049 C56.1812355,21.0872049 52.3595603,18.8168275 52.3595603,10.9085817 C52.3595603,3.03732337 56.1056287,0.691883117 59.3599815,0.691883117 C62.5011961,0.691883117 66.3604026,2.96171664 66.3604026,10.9085817 L66.3604026,10.9085817 Z" id="Shape"></path>
                    <path d="M76.9176034,10.0382885 C79.3772697,10.0382885 81.004718,8.63820423 81.004718,6.40481423 C81.004718,4.62669638 79.945136,3.3027628 77.6747585,3.3027628 L73.5881879,3.3027628 L73.5881879,10.0382885 L76.9176034,10.0382885 L76.9176034,10.0382885 Z M71.052371,1.03238534 L77.7492774,1.03238534 C81.0417055,1.03238534 83.6520412,2.58368302 83.6520412,6.40481423 C83.6520412,8.82640514 82.0256807,11.2110086 79.6416212,11.9300884 L84.4848031,19.9139409 L82.2905762,21.2389623 L77.2575617,12.3086659 L73.5871,12.3086659 L73.5871,20.7472466 L71.0512831,20.7472466 L71.0512831,1.03238534 L71.052371,1.03238534 Z" id="Shape"></path>
                    <path d="M100.832173,18.9305095 C99.205813,20.2169117 96.7831342,21.0872049 94.7781962,21.0872049 C88.9880266,21.0872049 87.3230468,15.7136882 87.3230468,10.8715942 C87.3230468,6.10238733 89.0636333,0.691883117 94.7020456,0.691883117 C97.3504566,0.691883117 99.6578216,2.24372473 101.020918,4.47602686 L98.863679,5.87611109 C97.918323,4.28673809 96.4796195,3.07594263 94.5497442,3.07594263 C90.6524624,3.07594263 89.9714579,7.95774371 89.9714579,10.947201 C89.9714579,14.011721 90.6524624,18.7036894 94.6258949,18.7036894 C95.9122971,18.7036894 97.1986993,18.3637311 98.2963566,17.6827266 L98.2963566,12.4984986 L93.5663129,12.4984986 L93.5663129,10.2281212 L100.83163,10.2281212 L100.83163,18.9305095 L100.832173,18.9305095 Z" id="Shape"></path>
                    <path d="M116.83741,0.540125735 L119.221469,1.78899652 L112.826446,13.1414278 L112.826446,20.7472466 L110.291717,20.7472466 L110.291717,13.1414278 L103.934225,1.78899652 L106.318284,0.540125735 L111.577575,10.6812176 L116.83741,0.540125735 Z" id="Shape"></path>
                </g>
            </g>
        </g>
    </g>
</svg>