<?xml version="1.0" encoding="UTF-8" standalone="no"?>
<svg width="60px" height="60px" viewBox="0 0 60 60" version="1.1" xmlns="http://www.w3.org/2000/svg" xmlns:xlink="http://www.w3.org/1999/xlink" xmlns:sketch="http://www.bohemiancoding.com/sketch/ns">
    <!-- Generator: Sketch 3.3.1 (12005) - http://www.bohemiancoding.com/sketch -->
    <title>colorgy_logo_white_small</title>
    <desc>Created with Sketch.</desc>
    <defs></defs>
    <g id="Page-1" stroke="none" stroke-width="1" fill="none" fill-rule="evenodd" sketch:type="MSPage">
        <g id="Logo-WS" sketch:type="MSArtboardGroup" fill="#FFFFFF">
            <g id="Colorgy-Logo-WS" sketch:type="MSLayerGroup" transform="translate(10.000000, 11.403509)">
                <path d="M39.9249123,36.8322807 L0.0329824561,36.8322807 L0.0329824561,31.8680702 L35.7101754,31.8680702 C40.3333333,31.8680702 39.9249123,36.8322807 39.9249123,36.8322807" id="Fill-1" sketch:type="MSShapeGroup"></path>
                <path d="M2.15157895,21.3494737 L37.7761404,21.3494737 L37.7761404,26.3136842 L2.15157895,26.3136842 L2.15157895,21.3494737 Z" id="Fill-2" sketch:type="MSShapeGroup"></path>
                <path d="M2.15157895,10.8308772 L37.7761404,10.8308772 L37.7761404,15.7964912 L2.15157895,15.7964912 L2.15157895,10.8308772 Z" id="Fill-3" sketch:type="MSShapeGroup"></path>
                <path d="M38.8350877,5.27859649 L4.78596491,5.27859649 C0.872982456,5.27859649 1.06245614,0.313684211 1.06245614,0.313684211 L38.8350877,0.313684211 L38.8350877,5.27859649" id="Fill-4" sketch:type="MSShapeGroup"></path>
                <path d="M6.53473684,9.5677193 L23.8814035,9.5677193 L34.4526316,6.54175439 L17.1066667,6.54175439 L6.53473684,9.5677193" id="Fill-5" sketch:type="MSShapeGroup"></path>
                <path d="M33.52,17.0603509 L16.6736842,17.0603509 L6.40701754,20.0863158 L23.2540351,20.0863158 L33.52,17.0603509" id="Fill-6" sketch:type="MSShapeGroup"></path>
                <path d="M33.2701754,27.5768421 L15.4238596,27.5768421 L4.54035088,30.6049123 L22.3866667,30.6049123 L33.2701754,27.5768421" id="Fill-7" sketch:type="MSShapeGroup"></path>
            </g>
        </g>
    </g>
</svg>