<?xml version="1.0" encoding="UTF-8" standalone="no"?>
<svg width="24px" height="24px" viewBox="0 0 24 24" version="1.1" xmlns="http://www.w3.org/2000/svg" xmlns:xlink="http://www.w3.org/1999/xlink" xmlns:sketch="http://www.bohemiancoding.com/sketch/ns">
    <!-- Generator: Sketch 3.3.1 (12005) - http://www.bohemiancoding.com/sketch -->
    <title>cart</title>
    <desc>Created with Sketch.</desc>
    <defs>
        <path d="M8.73152942,15.5 L17.2684706,15.5 L17.2684706,15.5 C17.0977884,15.7943603 17,16.1359919 17,16.5 C17,17.6026667 17.8973333,18.5 19,18.5 C20.1026667,18.5 21,17.6026667 21,16.5 C21,15.3973333 20.1026667,14.5 19,14.5 C18.8963495,14.5 18.7945132,14.5079288 18.6950661,14.5232117 C18.6608776,14.5086923 18.6253908,14.5 18.589,14.5 L7.093,14.5 C6.338,14.5 6,14 6,13.5 C6,13 6.338,12.5 7.093,12.5 L8.2965,12.5 L20,12.5 C20.229,12.5 20.43,12.344 20.485,12.121 L22.485,4.121 C22.523,3.972 22.489,3.814 22.395,3.692 C22.3,3.571 22.154,3.5 22,3.5 L5.081,3.5 L4.488,0.889 C4.436,0.662 4.233,0.5 4,0.5 L1,0.5 C0.724,0.5 0.5,0.724 0.5,1 C0.5,1.276 0.724,1.5 1,1.5 L3.601,1.5 L5.94059374,11.7957651 L5.94059374,11.7957651 C5.31986131,12.1660289 5,12.8330145 5,13.5 C5,14.0618083 5.22693691,14.6236165 5.66946207,15.0081021 C5.2589026,15.3746605 5,15.9077084 5,16.5 C5,17.6026667 5.89733333,18.5 7,18.5 C8.10266667,18.5 9,17.6026667 9,16.5 C9,16.1359919 8.90221158,15.7943603 8.73152942,15.5 L8.73152942,15.5 Z M6.899,11.5 L19.609,11.5 L21.359,4.5 L5.308,4.5 L6.899,11.5 Z M19,15.5 C18.45,15.5 18,15.95 18,16.5 C18,17.05 18.45,17.5 19,17.5 C19.55,17.5 20,17.05 20,16.5 C20,15.95 19.55,15.5 19,15.5 Z M7,15.5 C6.448,15.5 6,15.95 6,16.5 C6,17.05 6.448,17.5 7,17.5 C7.552,17.5 8,17.05 8,16.5 C8,15.95 7.552,15.5 7,15.5 Z" id="path-1"></path>
    </defs>
    <g id="Common" stroke="none" stroke-width="1" fill="none" fill-rule="evenodd" sketch:type="MSPage">
        <g id="Action" sketch:type="MSArtboardGroup" transform="translate(-96.000000, -96.000000)">
            <g id="cart" sketch:type="MSLayerGroup" transform="translate(95.000000, 96.000000)">
                <g id="Shape" transform="translate(0.500000, 3.000000)">
                    <mask id="mask-2" sketch:name="Mask" fill="white">
                        <use xlink:href="#path-1"></use>
                    </mask>
                    <use id="Mask" fill="#000000" sketch:type="MSShapeGroup" xlink:href="#path-1"></use>
                </g>
            </g>
        </g>
    </g>
</svg>