<?xml version="1.0" encoding="UTF-8" standalone="no"?>
<svg width="64px" height="64px" viewBox="0 0 64 64" version="1.1" xmlns="http://www.w3.org/2000/svg" xmlns:xlink="http://www.w3.org/1999/xlink" xmlns:sketch="http://www.bohemiancoding.com/sketch/ns">
    <!-- Generator: Sketch 3.3.1 (12005) - http://www.bohemiancoding.com/sketch -->
    <title>colorgy</title>
    <desc>Created with Sketch.</desc>
    <defs></defs>
    <g id="Colorgy" stroke="none" stroke-width="1" fill="none" fill-rule="evenodd" sketch:type="MSPage">
        <g id="colorgy" sketch:type="MSArtboardGroup" fill="#000000">
            <g id="Colorgy-Logo" sketch:type="MSLayerGroup" transform="translate(-4.221698, -1.679825)">
                <path d="M72.307406,66.7063876 L0.0597340285,66.7063876 L0.0597340285,57.7157809 L64.6741597,57.7157809 C73.0470912,57.7157809 72.307406,66.7063876 72.307406,66.7063876" id="Fill-1" sketch:type="MSShapeGroup"></path>
                <path d="M3.89669215,38.6657095 L68.4157976,38.6657095 L68.4157976,47.6563163 L3.89669215,47.6563163 L3.89669215,38.6657095 Z" id="Fill-2" sketch:type="MSShapeGroup"></path>
                <path d="M3.89669215,19.6156382 L68.4157976,19.6156382 L68.4157976,28.6087868 L3.89669215,28.6087868 L3.89669215,19.6156382 Z" id="Fill-3" sketch:type="MSShapeGroup"></path>
                <path d="M70.3336412,9.55998643 L8.66778881,9.55998643 C1.58104535,9.55998643 1.92419828,0.568108739 1.92419828,0.568108739 L70.3336412,0.568108739 L70.3336412,9.55998643" id="Fill-4" sketch:type="MSShapeGroup"></path>
                <path d="M11.8349633,17.327952 L43.2512494,17.327952 L62.396641,11.8476726 L30.9816258,11.8476726 L11.8349633,17.327952" id="Fill-5" sketch:type="MSShapeGroup"></path>
                <path d="M60.707566,30.897744 L30.1974578,30.897744 L11.6036528,36.3780233 L42.1150319,36.3780233 L60.707566,30.897744" id="Fill-6" sketch:type="MSShapeGroup"></path>
                <path d="M60.2551125,49.9440025 L27.9339194,49.9440025 L8.22296094,55.4280947 L40.5441541,55.4280947 L60.2551125,49.9440025" id="Fill-7" sketch:type="MSShapeGroup"></path>
            </g>
        </g>
    </g>
</svg>