<?xml version="1.0" encoding="UTF-8" standalone="no"?>
<svg width="24px" height="24px" viewBox="0 0 24 24" version="1.1" xmlns="http://www.w3.org/2000/svg" xmlns:xlink="http://www.w3.org/1999/xlink" xmlns:sketch="http://www.bohemiancoding.com/sketch/ns">
    <!-- Generator: Sketch 3.3.1 (12005) - http://www.bohemiancoding.com/sketch -->
    <title>tag</title>
    <desc>Created with Sketch.</desc>
    <defs></defs>
    <g id="Common" stroke="none" stroke-width="1" fill="none" fill-rule="evenodd" sketch:type="MSPage">
        <g id="Object" sketch:type="MSArtboardGroup" transform="translate(-48.000000, -48.000000)" fill="#000000">
            <g id="tag" sketch:type="MSLayerGroup" transform="translate(47.000000, 48.000000)">
                <g id="Shape" transform="translate(0.500000, 0.000000)" sketch:type="MSShapeGroup">
                    <path d="M18.7918473,4.29304269 C18.9801358,4.1022242 19.2316891,4 19.4990587,4 C19.7656751,4 20.0172285,4.1022242 20.2055169,4.29304269 C20.3953116,4.48234676 20.5,4.73525699 20.5,5.0055832 C20.5,5.27212333 20.3953116,5.52503356 20.2055169,5.71433762 C19.8274337,6.09748905 19.1699305,6.09294576 18.7933537,5.71433762 C18.4024669,5.32285681 18.4024669,4.68679515 18.7918473,4.29304269 L18.7918473,4.29304269 Z M19.5005102,7 C20.0356654,7 20.5365575,6.79014247 20.9134504,6.41223496 C21.2927905,6.03268794 21.5,5.528538 21.5,4.99241759 C21.5,4.45465766 21.2927905,3.94722871 20.9134504,3.5693212 C20.1629279,2.81186667 18.8421714,2.80858764 18.0834911,3.5693212 C17.3044161,4.35382768 17.3060477,5.63018775 18.0851227,6.41305471 C18.4611997,6.79014247 18.9637234,7 19.5005102,7 L19.5005102,7 Z" id="Mask"></path>
                    <path d="M23.3759992,1.22900076 L22.8789992,10.9280008 L11.2199992,22.5830008 L2.02099924,13.3870008 L13.6819992,1.72600076 L23.3759992,1.22900076 M23.9179992,0.200000763 L13.4219992,0.738000763 C13.3069992,0.746000763 13.1979992,0.792000763 13.1169992,0.877000763 L0.935999237,13.0580008 C0.848999237,13.1450008 0.799999237,13.2620008 0.799999237,13.3850008 C0.799999237,13.5090008 0.848999237,13.6290008 0.935999237,13.7160008 L10.8919992,23.6700008 C10.9829992,23.7610008 11.1009992,23.8090008 11.2199992,23.8090008 C11.3389992,23.8090008 11.4579992,23.7610008 11.5479992,23.6700008 L23.7309992,11.4900008 C23.8119992,11.4090008 23.8579992,11.3000008 23.8669992,11.1840008 L24.4039992,0.691000763 C24.4109992,0.561000763 24.3629992,0.429000763 24.2689992,0.339000763 C24.1769992,0.244000763 24.0489992,0.212000763 23.9179992,0.200000763" id="Mask"></path>
                </g>
            </g>
        </g>
    </g>
</svg>